<svg version="1" xmlns="http://www.w3.org/2000/svg" width="362.667" height="362.667" viewBox="0 0 272.000000 272.000000"><path d="M118.5 6.6C70.2 14.1 30.7 46.1 13.7 91.5c-6 15.9-7.2 23.3-7.2 45 0 17.7.3 21.1 2.4 29.5 12.4 49.7 48.4 85.6 98.6 98.2 7.8 2 11.6 2.3 29 2.3 21.7 0 29.1-1.2 45-7.2 44.3-16.6 76-54.7 84.1-101.3 2.2-13.1 1.5-38.9-1.5-51-12.4-49.5-48.6-85.7-98.1-98.1-6.7-1.7-12.2-2.2-26.5-2.4-9.9-.2-19.3-.1-21 .1zm46 3.3c26.2 6.5 46.5 18.1 65 37.2 14.3 14.7 23.6 29.9 30 49.2 8.7 26.2 8.7 54.3 0 80.4-6.8 20.4-16 35.1-31.9 50.9-18.5 18.5-37.2 29.1-63.1 35.5-11.7 2.9-35.9 3.7-48.5 1.5-27.5-4.8-50.5-16.8-70.6-37-18.5-18.5-29.1-37.2-35.5-63.1C7 152.8 6.2 128.6 8.4 116c4.8-27.5 16.8-50.5 37-70.6C65.2 25.6 87.5 13.7 115 8.5c11-2.1 38.8-1.3 49.5 1.4z"/><path d="M234 93c0 .5.4 1 .9 1 .6 0 1.3-.5 1.6-1 .3-.6-.1-1-.9-1-.9 0-1.6.4-1.6 1zM215.6 93.9c-.6 1 2.2 3.7 2.9 2.9.8-.7-.5-3.8-1.5-3.8-.5 0-1.1.4-1.4.9zM225.7 93.6c-.8.8.1 2.4 1.2 2.4.4 0 .8-.7.8-1.5 0-1.6-.9-2-2-.9zM237.6 97.5c-.9.9-2 1.4-2.6 1-1-.6-5.8 3.1-4.9 3.9.2.2 3.5.6 7.3 1l6.8.7-2.3-3.8c-1.2-2.1-2.3-3.9-2.5-4.1-.1-.2-.9.4-1.8 1.3z"/><path d="M212.6 102c-.6 1.4-1.6 3.1-2.3 3.8-2.9 3-.5 6.2 4.9 6.5 1.8 0 7.1-.2 11.8-.6 5.5-.5 9-.4 10 .3 2.9 2-1.1 2.8-13.4 2.6-6.7-.1-12.7-.4-13.5-.6-.8-.3-1.7.5-2.2 2.2-.7 2.6-.5 2.8 2.1 2.8 1.8 0 3.4.8 4.4 2.1l1.5 2.2 5.1-2.2c5.5-2.4 14.7-3.2 21-1.8l3.5.7-.4-5.2c-.5-8.4-2-9.2-16.3-8.5-9.7.5-11.8.3-11.8-.8 0-1.6 2-2.3 7.7-2.7 2.4-.2 4.5-.8 4.7-1.5.3-.8-1.9-1.2-7.6-1.5-7.8-.3-8.1-.2-9.2 2.2zM123.1 104.5c-.5.5-1.1 9.1-1.4 19-.3 9.9-1.3 23.7-2.3 30.8-.9 7-1.5 13-1.2 13.3.3.3 1.8.6 3.4.7 3.1.2 3.5-.9 4.9-13.6.4-3.1 1-5.7 1.5-5.7.4 0 1.1 4.3 1.5 9.5.4 5.2 1.1 9.8 1.5 10 .5.3 1.9.1 3.2-.4 5.6-2.3 13.7-13.1 9.7-13.1-.5 0-.7.6-.3 1.2.4.7-.2.5-1.3-.4-1.1-1-2.5-1.8-3.1-1.8-2 0-5.2-5.2-5.2-8.5 0-3.8 3.3-7.2 7.5-7.7 2.8-.3 3-.6 3.3-4.7.3-4.1-1.2-10-4-15.8-1.1-2.3-4.3-2-3.4.3.3.8-.1 1.4-1 1.4-.8 0-1.9 1-2.5 2.2-2.2 4.9-4 7.8-4.9 7.8-1.8 0 .2-9.4 3.1-14.8 2.9-5.7 3-9.3.1-7-1.3 1.1-1.5 1-.9-.4.3-1 .1-2-.5-2.4-.7-.4-.8-.3-.4.4.5.8 0 1.2-1.3 1.2-1.4 0-1.9-.5-1.5-1.4.7-1.7-3.2-1.8-4.5-.1zM63 106c-3.1 2.4-4.7 2.6-2.9.3 1.3-1.5 1.2-1.5-.9-.4-1.2.6-2.6 1-3 .7-1.9-1.2-4.3 2.6-5.2 8-2.7 16.6-6.5 54.4-5.7 57.4.3 1.1 0 2-.5 2-1.1 0-.4-51.7.8-59.3.5-2.8.3-3.7-.8-3.7-1.6 0-7.8 6.1-7.8 7.7 0 .6-.7 1.3-1.5 1.7-.8.3-1.5 1.2-1.5 1.9 0 .8-.8 2.2-1.9 3.1-1.9 1.7-4.4 9.4-5.6 17.3-.4 2.4-1.1 4.3-1.5 4.3-1.7 0-2.1 4-.6 6.2.9 1.3 1.6 4.3 1.6 7.3 0 7.1 4.3 21.3 6.8 22.9.5.3.7-5 .4-11.8-.4-11.6 1-32.4 2.5-36.4 1.4-3.4 2 3.1 1.5 16.7-.4 12.5 1.3 36.7 2.7 38.8 1.1 1.6 6.9 5.3 8.4 5.3 1.1 0 1.5-2.6 2.1-12.3.7-13.4.8-14.2 3.6-36.6 1.9-14.7 3-19.8 3-13.5 0 1.6-.7 11.7-1.5 22.4-.9 10.7-1.5 24.4-1.3 30.5l.3 11 4 .3 4 .3.1-21.3c.2-24.4 3.3-55.6 7-68.6.5-1.7.2-2.2-1.2-2.3-1.8 0-1.8-.1.1-.9 1.8-.8 1.8-.9-.5-.9-1.4 0-3.6.8-5 1.9zM112 106.8c-2.3 1.9-2.3 2-1.2 12.1 1.5 12.6 1.6 31.1.2 31.1-.5 0-1-1.9-1-4.3 0-2.3-.9-10.3-2-17.7-1.1-7.4-2-13.7-2-13.9 0-.2-1.1.4-2.4 1.2-1.5 1.1-3.6 1.4-5.7 1.1l-3.4-.6.3 16.5c.4 16.5-.8 29-4.3 46.1-.8 3.8-1.3 7.2-1 7.4.3.3 2.3-1.3 4.4-3.6 4.3-4.5 5.4-9 6.6-25.7.9-12.6 1.6-17.5 2.6-17.5s1.1 2 .9 18.3l-.1 10.9 2.3-1.6c1.2-.9 3.5-1.6 4.9-1.6 3 0 3-.1 4.9-12 2.6-17.8 2.4-48-.5-48-.7 0-2.3.8-3.5 1.8zM196.8 106.5c-.3.3-2.8.8-5.4 1.1-2.7.2-6.5.8-8.4 1.2l-3.5.8-.6 8.9c-.4 5-.6 9.1-.5 9.2.1.1 5.5-1.3 12.1-3.2 10.8-3.1 13.4-4.4 13.5-6.9 0-1.2-7.2.3-9 1.9-.8.7-3 1.6-4.8 2-2.5.5-3.3.3-3.8-1-.9-2.3-.3-2.6 8.8-4.2 4.5-.8 8.8-1.9 9.5-2.5.7-.6 1.3-2.7 1.3-4.6 0-2.8-.3-3.3-1.2-2.4-.7.7-1.9 1.2-2.7 1.1-1.1 0-1-.3.4-.9 1.9-.8 1.9-.9-.2-.9-1.3-.1-2.3.5-2.3 1.3 0 1.8-2.3 2.7-4.1 1.5-1.2-.7-1.2-.9.1-1 .8-.1 1.9-.1 2.3 0 .5.1.6-.3.2-.9-.7-1.1-1-1.2-1.7-.5zm.2 5.5c0 1-8.9 3.2-10.1 2.5-1.8-1.1-.9-2.4 2.6-3.6 1.9-.7 3.5-1.7 3.5-2.3 0-.5.9-.1 2 .9s2 2.1 2 2.5zM76.3 109c-4.4 2.7-6 10.5-9.4 47-1.9 19.6-1.7 33.8.4 37.7 2 3.8 3.4 4 8.7 1.3 7.9-4 11-11.9 13.6-34 1.3-12.2 2-37.2 1.1-41-1.4-5.5-2.1-7-4.5-8.7-5.5-4.1-6.6-4.3-9.9-2.3zm7.5 20.5c.2 6.1-.4 17.7-1.3 26-2.6 23.6-4 28.9-7.3 28.3-2.5-.5-2.7-10.6-.7-30.8 2.9-30.2 4-35.4 7.3-34.8 1.5.3 1.7 2 2 11.3zM165.3 111.7c-1.9.4-2.1.8-1.3 2.4.6 1 1.7 1.9 2.5 1.9 2.1 0 1.9 2.8-.2 3.3-4.1 1.2-9.4 1.8-10.3 1.2-.7-.4-.6-1.3 0-2.6.9-1.6.7-1.9-1.5-1.9-1.4 0-2.5.4-2.5 1 0 .5-.4 1-1 1-.5 0-1-.6-1-1.4 0-.8-.9-1.3-2.3-1.2-2.3.1-2.3.2-1 4.6.8 2.5 1.6 7.2 1.8 10.5.3 3.3.8 5.9 1.2 5.8 4.7-.9 15.7-3.8 18.9-4.9 3.8-1.3 6.4-4.4 6.4-7.5 0-1.5-6.2 0-7.5 1.8-1.2 1.6-9.1 3.7-10.6 2.8-.5-.4-.9-1.2-.9-2 0-1.4 1.3-1.8 12.9-4.7 4.4-1.1 5.6-1.9 6.1-3.9.4-1.3.3-3.5-.1-4.7-.8-2.2-3.6-2.7-9.6-1.5z"/><path d="M155.5 114c.3.5 1.1 1 1.6 1 .6 0 .7-.5.4-1-.3-.6-1.1-1-1.6-1-.6 0-.7.4-.4 1zM159.2 114.6c.4 2.1 2.2 2.3 2.6.1.2-1-.3-1.7-1.3-1.7s-1.5.6-1.3 1.6zM229 122.5c-1 1.2-.9 1.6.5 2.1 2.3.9 4-1 2.2-2.5-1.1-.9-1.7-.8-2.7.4zM238.2 123.2c.6 1.8 2.8 2.1 2.8.4 0-.9-.7-1.6-1.6-1.6-.9 0-1.4.5-1.2 1.2zM221.7 123.6c-.8.8.1 2.4 1.4 2.4.5 0 .9-.7.9-1.5 0-1.5-1.2-2-2.3-.9z"/></svg>